# xmcd CD database file
#
# Track frame offsets:
#	150
#	44133
#	110225
#	149155
#	178790
#	202920
#	244405
#
# Disc length: 4252 seconds
#
# Revision: 0
# Processed by: cddbd v1.5PL3 Copyright (c) Steve Scherf et al.
# Submitted via: CDex 1.51
#
DISCID=75109a07
DTITLE=Sylvain Marcotte Trio - Melodification
DYEAR=2002
DGENRE=Jazz
TTITLE0=Someday My Princess Will Come
TTITLE1=Nardis
TTITLE2=The «A» One
TTITLE3=Swing For MC
TTITLE4=Falling Grace
TTITLE5=Solarization
TTITLE6=Melodification
EXTD=YEAR: 2002
EXTT0=
EXTT1=
EXTT2=
EXTT3=
EXTT4=
EXTT5=
EXTT6=
PLAYORDER=
